<svg version="1.1" xmlns="http://www.w3.org/2000/svg" style="max-height: 500px" viewBox="379.56266666666664 458.64000000000004 427.655168 382.91183381088825" preserveAspectRatio="none" width="427.655168" height="382.91183381088825">
<defs>
	<linearGradient id="Gradient1" gradientUnits="userSpaceOnUse" x1="532.857" y1="835.44" x2="691.488" y2="574.859">
		<stop class="stop0" offset="0" stop-opacity="1" stop-color="rgb(255,34,86)"/>
		<stop class="stop1" offset="1" stop-opacity="1" stop-color="rgb(255,105,102)"/>
	</linearGradient>
	<linearGradient id="Gradient2" gradientUnits="userSpaceOnUse" x1="516.725" y1="749.213" x2="636.494" y2="470.156">
		<stop class="stop0" offset="0" stop-opacity="1" stop-color="rgb(255,49,89)"/>
		<stop class="stop1" offset="1" stop-opacity="1" stop-color="rgb(255,112,104)"/>
	</linearGradient>
</defs>
<path transform="translate(0,0)" fill="url(#Gradient2)" d="M 528.271 507.386 C 535.196 506.118 583.886 506.805 593.472 506.797 C 634.357 506.958 675.306 506.56 716.185 506.998 C 725.295 507.154 739.869 509.367 743.677 519.283 C 748 530.54 751.246 569.535 739.338 576.328 C 723.177 585.545 705.62 594.111 689.252 602.357 L 588.437 653.13 C 541.976 673.891 496.816 701.576 449.86 721.4 C 444.904 723.492 438.521 716.84 438.206 711.294 C 437.322 695.707 438.146 680.128 438.081 664.519 C 439.98 623.899 429.437 579.815 457.682 545.721 C 476.656 522.818 498.666 510.6 528.271 507.386 z"/>
<path transform="translate(0,0)" fill="url(#Gradient1)" d="M 735.329 602.043 C 735.57 602.055 735.812 602.055 736.052 602.079 C 739.282 602.401 742.711 603.185 744.633 606.043 C 748.465 611.739 747.391 685.62 746.589 698.503 C 746.237 704.651 745.335 710.754 743.894 716.741 C 737.854 741.275 721.473 761.145 699.996 774.033 C 686.952 781.807 672.473 786.87 657.427 788.92 C 636.095 792.031 468.307 792.724 452.28 788.679 C 437.256 781.261 432.252 758.954 443.304 750.014 C 455.188 740.4 483.516 727.443 497.669 720.228 L 594.636 671.574 L 682.833 627.573 C 699.085 619.456 718.978 608.725 735.329 602.043 z"/>
<path transform="translate(0,0)" fill="rgb(62,66,78)" d="M 912.485 546.446 C 941.316 547.035 969.138 550.308 993.926 566.554 L 983.468 600.177 C 964.819 590.497 948.637 583.991 927.295 582.205 C 911.183 580.856 877.63 580.886 876.205 603.119 C 874.447 630.538 927.229 632.521 945.576 639.083 C 962.803 645.244 978.831 648.445 992.081 662.983 C 1012.18 683.529 1009.34 723.452 988.315 742.547 C 965.551 763.22 934.085 764.656 904.928 763.604 C 878.641 761.981 853.06 754.448 830.087 741.569 C 832.535 731.906 838.533 716.138 842.021 706.284 C 866.351 721.145 889.22 728.026 918.009 728.593 C 934.931 728.926 966.048 724.642 964.601 701.609 C 962.837 673.527 908.955 672.731 888.682 664.988 C 875.437 659.929 862.688 657.479 851.574 646.975 C 829.718 628.587 827.767 592.363 847.313 571.331 C 865.247 552.034 887.441 547.813 912.485 546.446 z"/>
<path transform="translate(0,0)" fill="rgb(62,66,78)" d="M 1384.51 606.411 C 1389.49 605.707 1397.97 606.335 1402.97 607.012 C 1450.05 613.395 1469.52 653.534 1463.57 697.542 C 1450.45 696.453 1433.34 696.912 1419.91 696.92 L 1349.91 697.06 C 1350.71 700.175 1351.8 704.473 1352.97 707.401 C 1356.97 717.32 1364.87 725.166 1374.81 729.113 C 1399.18 738.797 1428.12 729.807 1450.95 720.002 C 1453.65 722.218 1459.03 740.083 1460.57 744.614 C 1409.88 780.629 1314.76 768.653 1310.53 693.48 C 1307.74 643.945 1334.65 609.908 1384.51 606.411 z M 1350.57 671.277 L 1393.75 671.121 L 1428.68 671.116 C 1423.49 646.5 1411.58 633.888 1385.06 636.179 C 1363.19 640.444 1356.1 650.724 1350.57 671.277 z"/>
<path transform="translate(0,0)" fill="rgb(62,66,78)" d="M 1223.58 607.325 C 1247.85 603.597 1277.46 610.086 1297.7 624.172 C 1293.81 633.649 1290.04 644.051 1286.34 653.674 C 1258.42 635.424 1213.86 629.459 1197.99 666.507 C 1193.09 677.953 1193.04 694.627 1197.85 706.153 C 1202.08 716.372 1210.3 724.423 1220.6 728.444 C 1242.58 737.178 1267.94 730.037 1288.62 721.245 C 1290.08 720.197 1290.46 720.407 1292.33 720.278 C 1296.36 723.778 1300.71 739.732 1302.55 745.434 C 1255.05 779.711 1163.61 769.147 1155.93 699.95 C 1150.54 651.426 1174.51 614.06 1223.58 607.325 z"/>
<path transform="translate(0,0)" fill="rgb(62,66,78)" d="M 1030.88 548.249 L 1067.7 548.188 C 1068.56 614.007 1067.2 680.113 1067.87 745.965 C 1067.91 749.962 1068.27 756.021 1067.09 759.597 L 1030.42 759.786 C 1028.65 718.617 1030.09 664.902 1030.1 622.661 L 1030.1 577.057 C 1030.09 569.159 1029.71 555.542 1030.88 548.249 z"/>
<path transform="translate(0,0)" fill="rgb(62,66,78)" d="M 1096.29 607.888 C 1108.18 607.468 1121.71 607.754 1133.73 607.727 C 1133.7 658.015 1134.38 709.579 1133.54 759.749 C 1121.12 759.663 1108.69 759.661 1096.27 759.744 C 1095.34 710.543 1095.88 657.232 1096.29 607.888 z"/>
<path transform="translate(0,0)" fill="rgb(62,66,78)" d="M 1097.34 551.972 C 1108.67 551.45 1122.5 551.894 1134.01 551.969 C 1135.01 561.267 1135.81 581.295 1133.34 590.075 C 1121.12 590.171 1108.91 590.16 1096.69 590.042 C 1095.87 582.064 1095.32 559.305 1097.34 551.972 z"/>
</svg>